<?xml version="1.0" encoding="UTF-8" standalone="no"?>
<!DOCTYPE svg PUBLIC "-//W3C//DTD SVG 1.1//EN" "http://www.w3.org/Graphics/SVG/1.1/DTD/svg11.dtd">
<svg version="1.1" xmlns="http://www.w3.org/2000/svg" xmlns:xlink="http://www.w3.org/1999/xlink" preserveAspectRatio="xMidYMid meet" viewBox="0 0 32 32" width="32" height="32"><defs><path d="M1.75 19.25C1.61 19.06 1.47 18.8 1.35 18.46C1.16 17.94 1.01 17.85 1 17.21C0.98 16.32 1.17 15.66 1.55 15.22C2.41 14.25 2.72 14.19 3.84 14.24C4.58 14.28 5.31 14.67 6.03 15.43C8.65 18.18 10.3 19.9 10.95 20.59C11.22 20.87 11.65 20.87 11.92 20.6C13.88 18.63 18.78 13.7 26.61 5.81C27.37 5.22 28.08 4.95 28.74 5C29.73 5.08 30.36 5.25 31.08 6.32C31.44 6.87 31.63 7.63 31.62 8.6C31.62 9.05 31.44 9.48 31.13 9.81C27.32 13.81 17.48 24.16 13.95 27.87C12.93 28.94 11.22 28.96 10.19 27.9C9.06 26.74 6.25 23.86 1.75 19.25Z" id="adzDgJnpi"></path></defs><g><g><g><use xlink:href="#adzDgJnpi" opacity="1" fill="#ffffff" fill-opacity="1"></use></g></g></g></svg>